<svg width="24" height="24" viewBox="0 0 24 24" fill="none" xmlns="http://www.w3.org/2000/svg">
<path d="M20 0H4C1.79086 0 0 1.79086 0 4V20C0 22.2091 1.79086 24 4 24H20C22.2091 24 24 22.2091 24 20V4C24 1.79086 22.2091 0 20 0Z" fill="url(#paint0_linear_1_11)"/>
<path d="M15.2422 16.1797H17.9375L16.5703 12.5469L15.2422 16.1797ZM17.4297 10.3203L21.1797 20.3203H19.5L18.5625 17.8203H14.6172L13.6797 20.3203H12L15.75 10.3203H17.4297ZM12.7422 14.5391L12.0781 16.2578L9.5 13.6797L5.32031 17.8203L4.14844 16.6484L8.40625 12.4688C7.36458 11.3229 6.53125 10.0599 5.90625 8.67969H7.58594C8.13281 9.72135 8.77083 10.6458 9.5 11.4531C10.6979 10.125 11.5833 8.64062 12.1562 7H2.82031V5.32031H8.67969V3.67969H10.3203V5.32031H16.1797V7H13.7188C13.4583 7.83333 13.0286 8.78385 12.4297 9.85156C11.8307 10.8932 11.2318 11.7526 10.6328 12.4297L10.5938 12.4688L12.7422 14.5391Z" fill="#1D232A"/>
<defs>
<linearGradient id="paint0_linear_1_11" x1="0" y1="0" x2="24" y2="24" gradientUnits="userSpaceOnUse">
<stop offset="0.166667" stop-color="#00CCB7"/>
<stop offset="0.486111" stop-color="#747FFF"/>
<stop offset="0.864583" stop-color="#FF53D9"/>
</linearGradient>
</defs>
</svg>
